<svg xmlns="http://www.w3.org/2000/svg" viewBox="0 0 2000 1000">
  <!-- Simplified world map paths -->
  <g id="countries" fill="rgba(100, 120, 150, 0.3)" stroke="rgba(255, 255, 255, 0.4)" stroke-width="0.5">
    <!-- North America -->
    <path d="M 150 150 Q 200 120 250 130 Q 300 140 350 150 L 400 180 Q 420 220 400 260 L 380 300 Q 360 320 340 330 L 320 340 Q 280 350 250 340 L 220 320 Q 180 280 170 240 L 160 200 Q 150 170 150 150 Z"/>
    <path d="M 250 200 Q 280 190 310 200 L 330 220 Q 340 250 330 280 L 310 300 Q 280 310 260 300 L 240 280 Q 230 250 240 220 Z"/>
    
    <!-- South America -->
    <path d="M 350 450 Q 370 440 390 450 L 410 480 Q 420 520 415 560 L 410 600 Q 400 640 385 670 L 370 690 Q 350 700 330 690 L 315 670 Q 305 640 310 600 L 315 560 Q 325 520 340 480 Z"/>
    
    <!-- Europe -->
    <path d="M 900 180 Q 950 170 1000 180 L 1040 200 Q 1060 220 1050 250 L 1030 270 Q 1000 280 970 270 L 930 250 Q 910 230 900 200 Z"/>
    
    <!-- Africa -->
    <path d="M 950 350 Q 1000 340 1050 350 L 1100 380 Q 1120 420 1120 460 L 1115 500 Q 1110 540 1100 580 L 1085 620 Q 1070 650 1050 670 L 1020 680 Q 990 685 960 680 L 930 665 Q 910 640 910 610 L 915 570 Q 920 530 930 490 L 945 450 Q 950 410 950 370 Z"/>
    
    <!-- Asia -->
    <path d="M 1100 180 Q 1200 160 1300 170 L 1400 190 Q 1500 210 1580 230 L 1640 250 Q 1680 270 1700 290 L 1710 320 Q 1715 360 1700 400 L 1680 430 Q 1650 450 1620 455 L 1580 460 Q 1520 460 1460 455 L 1400 445 Q 1340 430 1280 410 L 1220 385 Q 1160 360 1120 330 L 1100 300 Q 1090 260 1095 220 Z"/>
    
    <!-- Middle East -->
    <path d="M 1050 280 Q 1100 270 1150 280 L 1180 300 Q 1190 330 1180 360 L 1160 380 Q 1130 390 1100 385 L 1070 370 Q 1055 340 1050 310 Z"/>
    
    <!-- India -->
    <path d="M 1300 370 Q 1340 360 1380 370 L 1410 400 Q 1420 440 1410 480 L 1395 510 Q 1375 530 1350 535 L 1320 530 Q 1295 515 1285 490 L 1280 450 Q 1285 410 1300 385 Z"/>
    
    <!-- Southeast Asia -->
    <path d="M 1450 450 Q 1490 440 1530 450 L 1560 470 Q 1575 500 1570 530 L 1555 550 Q 1530 560 1505 555 L 1475 540 Q 1460 510 1455 480 Z"/>
    
    <!-- China -->
    <path d="M 1400 250 Q 1480 240 1560 250 L 1620 270 Q 1650 300 1645 340 L 1630 370 Q 1600 390 1570 385 L 1510 375 Q 1450 360 1410 340 L 1390 310 Q 1385 280 1395 260 Z"/>
    
    <!-- Japan -->
    <path d="M 1720 280 Q 1750 275 1770 285 L 1780 310 Q 1780 340 1770 365 L 1755 380 Q 1735 385 1720 380 L 1705 365 Q 1700 340 1705 315 Z"/>
    
    <!-- Australia -->
    <path d="M 1600 630 Q 1660 620 1720 630 L 1770 650 Q 1800 680 1795 720 L 1780 750 Q 1750 770 1710 770 L 1660 765 Q 1610 755 1580 735 L 1565 710 Q 1560 680 1575 655 Z"/>
    
    <!-- Antarctica (bottom edge) -->
    <path d="M 200 920 L 1800 920 L 1800 980 Q 1000 990 200 980 Z" fill="rgba(150, 170, 200, 0.2)"/>
  </g>
</svg>
